# Blender v2.79 (sub 0) OBJ File: 'matches.blend'
# www.blender.org
mtllib matches.mtl
o Cube_Cube.002
v -1.145821 -0.312974 -1.321554
v -1.145821 -0.312974 1.321554
v -1.145821 0.312974 -1.321554
v -1.145821 0.312974 1.321554
v 1.145821 -0.312974 -1.321554
v 1.145821 -0.312974 1.321554
v 1.145821 0.312974 -1.321554
v 1.145821 0.312974 1.321554
vt 0.622961 0.899183
vt 0.622961 0.625843
vt 0.689213 0.625843
vt 0.689213 0.899183
vt 0.690429 0.896525
vt 0.690429 0.626740
vt 0.883225 0.626740
vt 0.883226 0.896525
vt 0.949420 0.624515
vt 0.949420 0.898015
vt 0.884503 0.896776
vt 0.884503 0.623277
vt 0.937438 0.209943
vt 0.670003 0.209943
vt 0.670003 0.011215
vt 0.937438 0.011215
vt 0.969790 0.442061
vt 0.731307 0.442061
vt 0.731307 0.374922
vt 0.969790 0.374922
vt 0.970123 0.525162
vt 0.728289 0.525162
vt 0.728289 0.454037
vt 0.970123 0.454037
vn -1.0000 0.0000 0.0000
vn 0.0000 1.0000 0.0000
vn 1.0000 0.0000 0.0000
vn 0.0000 -1.0000 -0.0000
vn 0.0000 0.0000 -1.0000
vn 0.0000 0.0000 1.0000
usemtl matches
s off
f 1/1/1 2/2/1 4/3/1 3/4/1
f 3/5/2 4/6/2 8/7/2 7/8/2
f 7/9/3 8/10/3 6/11/3 5/12/3
f 5/13/4 6/14/4 2/15/4 1/16/4
f 3/17/5 7/18/5 5/19/5 1/20/5
f 8/21/6 4/22/6 2/23/6 6/24/6
